# xmcd CD database file
#
# Track frame offsets:
#	150
#	17986
#	35123
#	52791
#	67329
#	84483
#	105307
#	117088
#	136006
#	152766
#	168857
#	184683
#
# Disc length: 2694 seconds
#
# Revision: 0
# Processed by: cddbd v1.5.1PL0 Copyright (c) Steve Scherf et al.
# Submitted via: CDex 1.51
#
DISCID=940a840c
DTITLE=Tom McDermott and Evan Christopher - Danza
DYEAR=2002
DGENRE=Jazz
TTITLE0=Garoto
TTITLE1=Creole Eyes
TTITLE2=Swipsey Cakewalk
TTITLE3=The Carioca
TTITLE4=Valse #4
TTITLE5=Mamanita
TTITLE6=Flambée Montalbanaise
TTITLE7=Estatico
TTITLE8=Magyar Sisters
TTITLE9=The Chrysanthemum
TTITLE10=Atrapado
TTITLE11=The Broken Windmill
EXTD=YEAR: 2002
EXTT0=
EXTT1=
EXTT2=
EXTT3=
EXTT4=
EXTT5=
EXTT6=
EXTT7=
EXTT8=
EXTT9=
EXTT10=
EXTT11=
PLAYORDER=
